<?xml version="1.0" standalone="no"?>
<!DOCTYPE svg PUBLIC "-//W3C//DTD SVG 20010904//EN"
 "http://www.w3.org/TR/2001/REC-SVG-20010904/DTD/svg10.dtd">
<svg version="1.0" xmlns="http://www.w3.org/2000/svg"
 width="1024.000000pt" height="1024.000000pt" viewBox="0 0 1024.000000 1024.000000"
 preserveAspectRatio="xMidYMid meet">

<g transform="translate(0.000000,1024.000000) scale(0.100000,-0.100000)"
fill="#000000" stroke="none">
<path d="M7360 7695 c0 -2 24 -17 53 -31 114 -58 210 -143 310 -277 68 -90
109 -171 152 -300 53 -159 57 -221 47 -762 -5 -264 -7 -664 -4 -890 10 -846 7
-2166 -6 -2275 -17 -148 -33 -217 -55 -241 -10 -11 -20 -26 -21 -32 -8 -39
-31 -99 -43 -108 -7 -6 -13 -16 -13 -21 0 -23 -46 -71 -84 -88 -34 -16 -37
-19 -17 -19 20 -1 22 -4 13 -13 -15 -15 -16 -32 -2 -23 6 3 10 1 10 -5 0 -6
-21 -24 -47 -40 -29 -18 -40 -30 -29 -30 30 0 4 -23 -95 -86 -111 -70 -199
-107 -331 -141 -103 -26 -104 -26 -548 -29 -1286 -7 -3251 -3 -3306 7 -310 56
-485 155 -646 363 -93 120 -111 153 -152 276 -20 58 -36 98 -36 90 0 -18 38
-157 52 -186 5 -11 8 -24 7 -30 -4 -21 2 -28 11 -14 8 11 9 8 4 -12 -4 -18 -2
-28 5 -28 7 0 21 -21 32 -47 16 -38 22 -44 30 -33 8 12 10 10 6 -8 -4 -18 -3
-21 8 -12 10 8 16 4 26 -20 8 -16 17 -30 21 -30 5 0 8 -6 8 -13 0 -7 9 -19 20
-27 11 -8 20 -20 20 -27 0 -7 4 -13 9 -13 5 0 33 -24 63 -53 54 -54 104 -94
147 -116 19 -10 25 -10 31 -1 6 10 19 8 56 -6 44 -17 46 -19 24 -25 -24 -5
-23 -7 15 -23 48 -21 130 -39 147 -34 7 3 -14 12 -47 21 -65 18 -44 16 105
-11 87 -16 210 -17 1490 -14 767 2 1520 6 1673 10 154 4 281 4 283 1 6 -11
303 -17 409 -9 91 8 113 13 196 53 52 24 118 60 148 80 29 20 57 37 62 37 11
0 146 114 168 142 10 13 26 39 36 58 10 19 37 60 61 90 53 68 96 168 120 280
18 81 19 174 19 2000 0 1809 -1 1920 -18 2005 -20 99 -64 232 -80 242 -6 4 -8
-3 -3 -18 7 -25 25 -103 51 -219 8 -36 14 -76 14 -90 0 -14 -7 6 -15 43 -8 38
-35 124 -59 192 -23 68 -41 126 -38 129 10 9 -41 87 -54 82 -7 -3 -10 1 -7 8
3 8 -4 16 -16 19 -12 3 -19 10 -16 15 9 15 -5 44 -18 39 -6 -2 -56 39 -111 93
-74 71 -117 104 -168 128 -68 33 -77 36 -77 27z m370 -275 c0 -5 -2 -10 -4
-10 -3 0 -8 5 -11 10 -3 6 -1 10 4 10 6 0 11 -4 11 -10z m217 -567 c-3 -10 -5
-4 -5 12 0 17 2 24 5 18 2 -7 2 -21 0 -30z m-4952 -4483 c3 -6 -1 -7 -9 -4
-18 7 -21 14 -7 14 6 0 13 -4 16 -10z"/>
<path d="M3310 7669 c-150 -25 -319 -119 -446 -251 -139 -143 -214 -291 -243
-478 -16 -104 -18 -3727 -2 -3810 61 -317 206 -521 462 -649 168 -85 146 -83
1172 -79 573 2 889 7 896 13 6 6 11 383 13 1053 l3 1043 -300 -6 c-165 -4
-323 -11 -351 -16 -70 -13 -123 -60 -160 -141 l-29 -63 -6 -540 c-4 -372 -10
-551 -18 -577 -18 -58 -89 -156 -144 -200 -89 -70 -120 -81 -235 -86 -101 -4
-105 -4 -170 29 -84 43 -171 127 -204 199 -54 116 -53 77 -53 1425 0 688 -3
1230 -7 1205 -8 -54 -10 -2512 -2 -2554 13 -70 69 -161 152 -243 45 -45 82
-87 82 -93 0 -6 4 -9 9 -6 5 3 12 -1 15 -10 3 -8 10 -13 15 -10 5 4 26 -14 48
-40 83 -99 244 -248 320 -297 72 -46 58 -51 -147 -57 -102 -3 -189 -3 -195 0
-5 2 -45 3 -89 1 -76 -3 -78 -2 -62 15 13 12 66 25 183 44 175 29 216 45 145
56 -26 4 -42 12 -42 20 0 8 -4 14 -10 14 -5 0 -10 7 -10 15 0 8 -9 15 -19 15
-23 0 -81 67 -81 94 0 18 -33 79 -55 102 -6 6 -25 19 -43 28 -18 9 -34 27 -38
41 -4 15 -13 25 -24 25 -11 0 -25 16 -38 44 -16 33 -27 44 -44 45 -53 1 -98
14 -98 27 0 8 -13 17 -30 21 -21 4 -30 11 -30 24 0 12 -7 19 -20 19 -13 0 -20
7 -20 20 0 11 -4 20 -10 20 -5 0 -10 13 -10 29 0 42 -24 56 -87 54 l-53 -3 0
40 c0 33 3 40 20 40 12 0 20 -7 20 -17 0 -10 12 -24 28 -31 23 -11 29 -10 39
5 25 33 8 52 -39 44 -5 0 -8 17 -8 39 0 38 -2 40 -30 40 -22 0 -30 -5 -30 -17
0 -17 -40 -43 -67 -43 -8 0 -13 12 -13 30 l0 30 -80 0 -80 0 0 40 0 40 -41 0
-41 0 7 78 c11 127 10 162 -7 267 -14 87 -16 237 -17 1145 0 575 -4 1209 -7
1410 -6 345 -5 370 15 463 55 259 210 469 420 571 l86 41 700 1 c385 1 784 -1
888 -4 l187 -5 2 -1026 3 -1026 5 1131 c5 1095 6 1133 24 1153 23 26 81 29 90
5 3 -9 6 -528 6 -1153 l0 -1138 43 2 c161 6 161 6 147 54 -11 39 9 92 53 136
11 11 17 26 14 39 -3 12 -10 39 -16 61 -15 58 -14 115 3 115 8 0 15 18 20 53
3 28 11 77 16 107 12 74 12 204 1 271 -6 30 -12 229 -14 442 -4 331 -7 390
-20 400 -22 18 -58 337 -38 337 5 0 17 19 26 43 14 38 21 44 63 55 49 12 75
17 155 28 26 3 47 9 47 14 0 13 173 31 181 18 4 -6 14 -8 22 -5 8 3 19 1 24
-4 6 -6 65 -5 155 1 91 7 155 7 170 1 14 -5 71 -7 127 -4 80 5 101 9 97 19 -4
11 10 14 64 14 40 0 70 -4 70 -10 0 -5 9 -10 21 -10 11 0 17 5 14 10 -3 6 3
10 14 10 14 0 21 -6 21 -19 0 -20 -1 -19 223 -41 64 -6 103 -15 113 -25 9 -8
26 -15 39 -15 13 0 31 -7 40 -16 24 -24 158 -29 205 -8 19 9 40 23 47 31 10
13 15 13 40 -6 101 -79 207 -211 259 -325 34 -74 65 -216 74 -331 l7 -100 2
88 c2 125 -30 269 -85 386 -52 111 -137 233 -197 282 -62 52 -167 123 -207
142 -95 43 -134 57 -189 67 -69 12 -3748 22 -3821 9z m1820 -3696 c10 -141 -3
-1514 -14 -1532 -3 -4 -72 -8 -153 -7 -81 0 -133 2 -115 4 28 3 31 6 22 23
-10 18 -7 19 87 19 103 0 111 3 129 35 13 23 1 906 -12 927 -5 7 -7 125 -5
262 2 268 11 320 56 336 1 0 3 -30 5 -67z m-2050 -753 c0 -5 -4 -10 -10 -10
-5 0 -10 5 -10 10 0 6 5 10 10 10 6 0 10 -4 10 -10z m-115 -620 c3 -6 -1 -7
-9 -4 -18 7 -21 14 -7 14 6 0 13 -4 16 -10z m272 -146 c-9 -9 -28 6 -21 18 4
6 10 6 17 -1 6 -6 8 -13 4 -17z"/>
<path d="M6761 7111 c70 -50 152 -145 170 -196 11 -34 13 -323 11 -1835 -2
-1219 -7 -1814 -14 -1855 -23 -131 -110 -238 -246 -303 -123 -59 -230 -52
-356 22 -52 30 -151 135 -169 179 -29 68 -32 128 -32 642 l0 530 -23 49 c-28
62 -65 111 -100 134 -23 15 -63 17 -374 19 l-348 1 0 -231 c0 -425 -10 -1691
-14 -1782 -2 -54 -1 -80 4 -65 l8 25 1 -25 1 -25 912 3 c755 2 926 5 986 17
77 16 207 74 232 104 8 10 33 32 56 48 65 45 179 152 171 159 -4 4 -26 -10
-49 -30 -64 -55 -181 -142 -200 -149 -23 -8 -25 25 -4 46 8 8 14 28 14 44 -1
17 3 36 7 43 6 9 4 11 -5 5 -10 -6 -12 -1 -6 26 3 19 9 52 13 74 3 22 9 45 13
50 4 6 11 44 15 85 3 41 10 100 15 130 14 89 25 822 22 1420 -6 883 -17 1685
-27 1843 -5 79 -3 112 6 123 19 24 -50 113 -165 213 -55 47 -183 165 -284 261
-168 160 -262 239 -286 240 -5 0 15 -17 45 -39z m-737 -3077 c51 -7 71 -26 80
-79 3 -16 6 -182 6 -367 0 -515 3 -523 261 -770 92 -88 198 -184 236 -212 38
-28 92 -71 119 -95 27 -24 72 -56 99 -72 l50 -29 -590 1 c-324 1 -609 3 -632
6 -51 6 -68 36 -35 62 38 31 50 70 68 226 14 124 23 175 30 186 9 15 12 168
17 724 2 325 3 331 25 362 26 36 43 43 127 53 88 11 88 11 139 4z m933 -566
c-3 -7 -5 -2 -5 12 0 14 2 19 5 13 2 -7 2 -19 0 -25z m-532 -586 c-3 -3 -11 0
-18 7 -9 10 -8 11 6 5 10 -3 15 -9 12 -12z"/>
<path d="M4234 7055 c75 -92 116 -176 129 -267 9 -65 8 -81 -11 -143 -24 -80
-58 -137 -127 -213 -85 -95 -177 -132 -325 -132 -134 0 -176 16 -271 101 -48
44 -90 92 -104 119 -20 40 -48 139 -58 210 -3 14 -5 -2 -5 -35 -4 -170 83
-299 282 -422 104 -63 140 -94 156 -133 10 -23 19 -28 61 -33 57 -7 146 -45
197 -84 42 -32 104 -127 132 -201 13 -35 25 -100 31 -171 13 -166 16 -178 56
-222 64 -71 54 -69 430 -67 287 2 310 3 153 8 l-185 5 0 55 c0 30 -6 65 -13
77 -7 13 -55 58 -107 100 -113 93 -347 302 -392 351 -18 19 -33 40 -33 47 0
19 85 -7 193 -58 115 -55 165 -63 232 -40 54 19 105 54 105 71 0 6 8 13 18 16
20 7 96 140 99 175 1 13 7 27 14 31 13 9 16 75 5 135 -6 38 -42 109 -69 137
-6 7 -23 27 -37 43 -14 17 -158 161 -320 320 -165 163 -269 259 -236 220z"/>
<path d="M3795 7075 c-52 -25 -85 -48 -85 -59 0 -3 -19 -23 -42 -44 -56 -50
-100 -148 -99 -223 0 -128 82 -254 208 -318 54 -27 68 -27 23 0 -19 12 -43 31
-53 43 -10 11 -34 38 -53 60 -59 66 -69 92 -68 186 0 144 54 226 187 291 121
58 274 29 364 -70 18 -20 33 -39 33 -43 0 -5 5 -8 10 -8 18 0 -16 53 -67 104
-102 103 -246 136 -358 81z"/>
<path d="M6471 7079 c-79 -16 -133 -67 -189 -178 l-37 -75 -5 -615 c-5 -561
-7 -621 -24 -671 -64 -192 -208 -270 -541 -291 -202 -13 -1212 3 -1266 20 -20
6 -56 25 -80 42 l-44 32 40 -42 c21 -22 46 -41 54 -41 8 0 11 -3 8 -7 -17 -16
67 -55 183 -83 77 -19 738 -52 801 -39 24 4 177 8 339 9 163 0 300 4 305 9 6
5 28 11 50 14 98 12 213 89 231 155 3 12 10 22 14 22 19 0 35 71 35 155 0 105
-23 235 -41 235 -31 0 -25 921 7 941 8 5 11 9 6 9 -4 0 4 22 18 50 28 55 94
132 107 124 4 -3 11 2 14 10 3 9 14 16 24 16 11 0 22 5 25 10 3 6 17 10 30 10
13 0 25 4 27 8 5 14 123 39 144 32 10 -4 41 -27 68 -51 43 -38 48 -40 41 -19
-46 154 -189 241 -344 209z"/>
<path d="M3471 6874 c0 -11 3 -14 6 -6 3 7 2 16 -1 19 -3 4 -6 -2 -5 -13z"/>
<path d="M6131 6864 c0 -11 3 -14 6 -6 3 7 2 16 -1 19 -3 4 -6 -2 -5 -13z"/>
<path d="M3458 6817 c-3 -19 -2 -25 4 -19 6 6 8 18 6 28 -3 14 -5 12 -10 -9z"/>
<path d="M6121 6804 c0 -11 3 -14 6 -6 3 7 2 16 -1 19 -3 4 -6 -2 -5 -13z"/>
<path d="M6124 6590 c0 -91 2 -128 3 -82 2 45 2 119 0 165 -1 45 -3 8 -3 -83z"/>
<path d="M4251 6674 c0 -11 3 -14 6 -6 3 7 2 16 -1 19 -3 4 -6 -2 -5 -13z"/>
<path d="M4229 6618 c-7 -18 -34 -55 -59 -82 -25 -27 -36 -44 -25 -38 11 5 30
21 42 34 25 27 68 107 61 114 -3 2 -11 -10 -19 -28z"/>
<path d="M7804 6420 c0 -80 2 -112 3 -72 2 39 2 105 0 145 -1 39 -3 7 -3 -73z"/>
<path d="M3993 6421 c-17 -11 -53 -22 -80 -24 l-48 -3 55 -2 c40 -1 64 4 88
18 31 19 40 30 25 30 -5 0 -22 -9 -40 -19z"/>
<path d="M6123 6320 c0 -36 2 -50 4 -32 2 17 2 47 0 65 -2 17 -4 3 -4 -33z"/>
<path d="M7799 6025 c-5 -262 3 -1929 10 -1947 6 -17 3 2055 -3 2082 -2 8 -5
-52 -7 -135z"/>
<path d="M3817 6004 c-64 -20 -124 -81 -168 -170 l-34 -69 0 -1270 0 -1270 27
-55 c15 -30 51 -80 79 -110 38 -41 44 -45 24 -17 -38 54 -72 144 -85 230 -10
61 -9 483 2 657 1 19 -2 130 -6 245 -7 169 -5 245 9 389 11 117 13 181 7 185
-7 4 -13 132 -16 331 -3 202 -2 316 4 300 7 -19 9 -7 9 50 0 124 34 270 62
270 4 0 14 18 23 40 9 22 20 40 24 40 5 0 27 18 49 39 34 34 48 40 99 46 32 4
64 8 69 9 19 6 91 -37 139 -83 48 -46 48 -46 42 -16 -23 99 -116 202 -206 229
-65 19 -90 19 -153 0z"/>
<path d="M6122 5930 c0 -19 2 -27 5 -17 2 9 2 25 0 35 -3 9 -5 1 -5 -18z"/>
<path d="M6153 4468 c19 -26 46 -73 58 -105 23 -58 23 -59 20 -558 -1 -309 2
-520 8 -553 12 -60 76 -174 122 -218 29 -26 30 -27 19 -5 -7 13 -25 44 -40 68
-16 25 -27 53 -25 64 2 11 0 17 -5 14 -22 -14 -36 114 -29 252 10 175 10 625
1 739 -8 91 -13 110 -54 195 -26 52 -61 108 -78 124 l-33 30 36 -47z"/>
<path d="M7806 4014 c-3 -9 -6 -199 -6 -423 l0 -406 -28 -138 c-30 -144 -24
-173 9 -46 11 41 23 138 29 222 9 147 14 807 6 807 -2 0 -7 -7 -10 -16z"/>
<path d="M2461 3534 c0 -11 3 -14 6 -6 3 7 2 16 -1 19 -3 4 -6 -2 -5 -13z"/>
<path d="M2463 3350 c0 -25 2 -35 4 -22 2 12 2 32 0 45 -2 12 -4 2 -4 -23z"/>
<path d="M2475 3191 c2 -46 8 -88 14 -94 7 -7 8 -4 5 9 -2 10 -9 53 -14 94
l-9 75 4 -84z"/>
</g>
</svg>
