<?xml version="1.0" standalone="no"?>
<!DOCTYPE svg PUBLIC "-//W3C//DTD SVG 20010904//EN"
 "http://www.w3.org/TR/2001/REC-SVG-20010904/DTD/svg10.dtd">
<svg version="1.0" xmlns="http://www.w3.org/2000/svg"
 width="242.000000pt" height="53.000000pt" viewBox="0 0 242.000000 53.000000"
 preserveAspectRatio="xMidYMid meet">

<g transform="translate(0.000000,53.000000) scale(0.100000,-0.100000)"
fill="#000000" stroke="none">
<path d="M179 437 c-72 -49 -102 -139 -79 -238 29 -119 147 -168 276 -114 l34
14 0 80 0 81 -75 0 c-68 0 -75 -2 -75 -20 0 -17 7 -20 46 -20 l45 0 -3 -52 -3
-53 -52 -3 c-97 -6 -143 44 -143 153 0 132 89 189 203 131 l47 -23 0 32 c0 28
-4 33 -39 43 -65 20 -143 15 -182 -11z"/>
<path d="M760 266 l0 -196 25 0 25 0 0 163 1 162 47 -108 c61 -139 69 -139
131 3 l46 105 3 -162 2 -163 25 0 25 0 0 196 0 195 -36 -3 c-35 -3 -37 -5 -76
-98 -22 -52 -43 -99 -47 -103 -5 -4 -29 38 -54 95 -45 101 -47 103 -81 106
l-36 3 0 -195z"/>
<path d="M509 347 c-45 -30 -59 -60 -59 -132 0 -70 23 -115 69 -140 37 -19 62
-19 106 -1 50 21 75 68 75 141 0 33 -6 71 -13 85 -17 34 -74 70 -112 70 -18 0
-47 -10 -66 -23z m124 -49 c25 -29 24 -137 -2 -169 -26 -32 -86 -32 -112 0
-22 26 -27 128 -8 162 22 42 89 46 122 7z"/>
<path d="M1209 347 c-45 -30 -59 -60 -59 -132 0 -70 23 -115 69 -140 37 -19
62 -19 106 -1 50 21 75 68 75 141 0 33 -6 71 -13 85 -17 34 -74 70 -112 70
-18 0 -47 -10 -66 -23z m124 -49 c25 -29 24 -137 -2 -169 -26 -32 -86 -32
-112 0 -22 26 -27 128 -8 162 22 42 89 46 122 7z"/>
<path d="M1537 350 c-31 -17 -37 -17 -37 -5 0 8 -9 15 -20 15 -19 0 -20 -7
-20 -145 0 -138 1 -145 20 -145 19 0 20 7 20 110 l0 109 30 16 c37 19 74 19
91 -1 8 -10 14 -56 17 -125 4 -98 6 -109 23 -109 17 0 19 9 19 115 0 123 -9
157 -47 174 -34 16 -53 14 -96 -9z"/>
<path d="M2042 355 c-66 -29 -91 -143 -49 -225 18 -36 30 -48 65 -60 121 -42
213 94 152 228 -29 65 -97 88 -168 57z m105 -49 c25 -22 28 -30 28 -90 0 -77
-22 -109 -75 -109 -53 0 -75 32 -75 109 0 60 3 68 28 90 15 13 37 24 47 24 10
0 32 -11 47 -24z"/>
<path d="M1740 340 c0 -17 8 -19 69 -22 l69 -3 -74 -104 c-41 -58 -74 -113
-74 -123 0 -16 10 -18 105 -18 98 0 105 1 105 20 0 17 -8 19 -74 22 l-74 3 74
105 c41 58 74 113 74 123 0 15 -11 17 -100 17 -93 0 -100 -1 -100 -20z"/>
<path d="M2300 105 c0 -32 2 -35 30 -35 28 0 30 3 30 35 0 32 -2 35 -30 35
-28 0 -30 -3 -30 -35z"/>
</g>
</svg>
