<?xml version="1.0" encoding="UTF-8"?>
<svg xmlns="http://www.w3.org/2000/svg" xmlns:xlink="http://www.w3.org/1999/xlink" width="97px" height="51px" viewBox="0 0 96 51" version="1.1">
<g id="surface1">
<path style=" stroke:none;fill-rule:nonzero;fill:rgb(0%,0%,0%);fill-opacity:1;" d="M 22.425781 3.96875 C 17.089844 4.625 12.761719 8.539062 11.359375 13.960938 C 11.167969 14.726562 11.082031 15.851562 11.082031 17.859375 C 11.082031 20.25 11.011719 20.875 10.71875 21.828125 C 10.234375 23.335938 10.234375 25.464844 10.71875 27.109375 C 11.03125 28.167969 11.082031 28.792969 11.082031 32.082031 L 11.082031 35.859375 L 19.375 35.859375 L 19.863281 36.847656 C 20.484375 38.144531 20.554688 40.050781 19.984375 41.144531 C 19.550781 41.992188 18.320312 42.859375 16.988281 43.257812 C 14.910156 43.898438 11.394531 43.464844 9.367188 42.339844 C 8.953125 42.113281 8.554688 41.921875 8.484375 41.921875 C 8.363281 41.921875 7.445312 44.453125 7.445312 44.816406 C 7.445312 45.09375 8.449219 45.59375 9.957031 46.082031 C 11.636719 46.617188 15.964844 46.773438 17.75 46.355469 C 20.292969 45.75 22.683594 44.140625 23.550781 42.441406 C 24.363281 40.847656 24.691406 38.058594 24.242188 36.550781 C 24.15625 36.222656 24.070312 35.929688 24.070312 35.910156 C 24.070312 35.875 25.4375 35.859375 27.097656 35.859375 C 29.558594 35.859375 30.128906 35.910156 30.128906 36.101562 C 30.128906 36.222656 29.59375 38.527344 28.917969 41.210938 C 28.257812 43.878906 27.707031 46.148438 27.707031 46.253906 C 27.707031 46.375 28.363281 46.425781 29.644531 46.390625 L 31.585938 46.339844 L 31.808594 45.386719 C 31.929688 44.867188 32.328125 43.101562 32.710938 41.488281 C 33.089844 39.859375 33.523438 37.9375 33.679688 37.191406 L 33.972656 35.859375 L 36.867188 35.859375 L 36.917969 28.445312 C 36.953125 23.542969 37.039062 20.945312 37.160156 20.734375 C 37.296875 20.492188 37.386719 20.996094 37.558594 22.988281 C 37.679688 24.390625 38.042969 27.335938 38.371094 29.535156 C 38.703125 31.71875 39.253906 35.304688 39.585938 37.503906 C 39.914062 39.6875 40.347656 42.546875 40.535156 43.828125 C 40.726562 45.109375 40.917969 46.289062 40.96875 46.445312 C 41.023438 46.667969 41.230469 46.6875 42.371094 46.566406 C 43.097656 46.480469 43.722656 46.390625 43.757812 46.355469 C 43.828125 46.304688 46.734375 39.183594 47.585938 37.019531 L 48.050781 35.859375 L 50.855469 35.859375 C 53.003906 35.859375 53.679688 35.910156 53.679688 36.066406 C 53.679688 36.1875 53.558594 38.511719 53.417969 41.210938 C 53.28125 43.914062 53.210938 46.203125 53.265625 46.269531 C 53.316406 46.355469 54.199219 46.425781 55.222656 46.425781 L 57.089844 46.425781 L 57.195312 43.015625 C 57.265625 41.144531 57.316406 38.769531 57.316406 37.730469 L 57.316406 35.859375 L 63.132812 35.859375 L 63.34375 37.316406 C 64.015625 41.921875 66.582031 45.40625 70.027344 46.339844 C 70.945312 46.582031 71.585938 46.632812 73.542969 46.546875 C 75.722656 46.460938 76.191406 46.390625 79.132812 45.578125 C 80.882812 45.09375 82.425781 44.695312 82.546875 44.695312 C 82.648438 44.695312 82.789062 44.625 82.839844 44.539062 C 82.960938 44.347656 83.550781 40.328125 83.808594 37.816406 L 84.035156 35.859375 L 88.902344 35.824219 L 93.765625 35.773438 L 93.765625 25.464844 C 93.765625 17.339844 93.714844 14.949219 93.523438 14.207031 C 92.292969 9.25 88.640625 5.492188 83.808594 4.226562 C 82.320312 3.828125 79.289062 3.828125 77.75 4.226562 C 76.226562 4.625 74.0625 5.699219 72.867188 6.652344 C 71.480469 7.761719 70.078125 9.511719 69.28125 11.15625 C 68.226562 13.339844 68.035156 14.257812 67.929688 17.667969 C 67.84375 20.703125 67.84375 20.703125 67.359375 21.222656 C 67.097656 21.5 66.5625 22.207031 66.164062 22.761719 L 65.453125 23.785156 L 65.453125 19.679688 C 65.453125 14.8125 65.28125 13.652344 64.15625 11.347656 C 62.824219 8.59375 60.65625 6.445312 57.851562 5.09375 C 56.105469 4.261719 54.632812 3.949219 52.46875 3.933594 C 48.96875 3.933594 46.007812 5.144531 43.496094 7.605469 C 41.265625 9.824219 39.671875 13.304688 39.652344 15.972656 L 39.652344 16.976562 L 36.882812 16.976562 L 36.882812 16.058594 C 36.882812 14.933594 36.503906 13.304688 35.929688 11.953125 C 33.695312 6.636719 28.035156 3.273438 22.425781 3.96875 Z M 26.527344 5.472656 C 31.222656 6.546875 34.683594 10.324219 35.480469 15.261719 C 35.742188 16.820312 35.722656 16.941406 35.289062 17.011719 C 34.925781 17.0625 34.753906 17.6875 32.746094 25.761719 L 30.597656 34.472656 L 23.273438 34.472656 L 22.976562 33.972656 C 22.527344 33.207031 20.8125 31.703125 18.597656 30.109375 C 15.222656 27.699219 14.441406 26.710938 14.25 24.597656 C 13.972656 21.621094 15.53125 20.027344 18.960938 19.800781 C 20.625 19.679688 22.875 20.183594 23.949219 20.890625 C 24.3125 21.132812 24.640625 21.308594 24.65625 21.273438 C 24.675781 21.238281 24.953125 20.613281 25.265625 19.871094 C 25.679688 18.847656 25.765625 18.449219 25.628906 18.277344 C 25.332031 17.914062 23.34375 17.183594 22.128906 16.976562 C 18.5625 16.40625 14.734375 17.117188 12.933594 18.710938 L 12.292969 19.261719 L 12.292969 17.617188 C 12.292969 14.828125 12.882812 12.558594 14.09375 10.6875 C 16.777344 6.511719 21.800781 4.398438 26.527344 5.472656 Z M 55.066406 5.457031 C 58.648438 6.289062 61.4375 8.59375 63.046875 12.039062 C 64.070312 14.207031 64.105469 14.515625 64.191406 20.632812 C 64.277344 26.070312 64.257812 26.3125 63.894531 27.5625 C 63.445312 29.035156 63.046875 31.804688 63.03125 33.382812 L 63.03125 34.472656 L 57.453125 34.472656 L 57.59375 27.664062 C 57.679688 23.941406 57.75 20.007812 57.75 18.96875 L 57.75 17.0625 L 52.226562 17.0625 L 48.988281 25.117188 C 47.1875 29.554688 45.609375 33.46875 45.453125 33.816406 L 45.195312 34.472656 L 42.511719 34.472656 L 42.007812 31.214844 C 40.867188 23.664062 40.867188 23.820312 40.867188 19.609375 C 40.867188 15.261719 41.039062 13.980469 41.835938 12.179688 C 42.945312 9.648438 45.210938 7.34375 47.707031 6.253906 C 49.921875 5.265625 52.867188 4.953125 55.066406 5.457031 Z M 84.277344 5.699219 C 87.410156 6.667969 90.234375 9.269531 91.566406 12.421875 C 92.433594 14.464844 92.46875 14.847656 92.46875 24.980469 L 92.46875 34.472656 L 84.277344 34.472656 L 84.519531 32.394531 L 76.191406 32.394531 L 76.191406 32.898438 C 76.191406 33.175781 76.136719 33.640625 76.085938 33.9375 L 75.984375 34.472656 L 69.089844 34.472656 L 69.089844 29.777344 C 69.089844 24.339844 69.039062 24.566406 70.769531 22.695312 C 72.691406 20.613281 74.925781 19.785156 78.09375 19.992188 C 79.964844 20.113281 81.417969 20.457031 82.648438 21.082031 C 83.117188 21.308594 83.566406 21.445312 83.636719 21.359375 C 83.707031 21.289062 84 20.511719 84.292969 19.628906 L 84.8125 18.035156 L 83.671875 17.6875 C 81.574219 17.0625 80.988281 16.960938 78.441406 16.855469 C 76.519531 16.785156 75.585938 16.820312 74.476562 17.046875 C 72.96875 17.324219 70.839844 18.222656 69.835938 18.988281 C 69.542969 19.210938 69.230469 19.402344 69.160156 19.402344 C 68.953125 19.402344 69.230469 15.175781 69.523438 14.015625 C 70.597656 9.804688 74.113281 6.410156 78.355469 5.472656 C 79.929688 5.128906 82.789062 5.230469 84.277344 5.699219 Z M 54.304688 24.703125 C 54.148438 27.078125 53.972656 30.210938 53.921875 31.667969 C 53.835938 33.398438 53.730469 34.351562 53.59375 34.402344 C 53.488281 34.457031 52.347656 34.457031 51.046875 34.4375 L 48.675781 34.386719 L 50.40625 30.144531 C 51.359375 27.804688 52.65625 24.632812 53.28125 23.074219 C 53.90625 21.515625 54.441406 20.285156 54.492188 20.320312 C 54.527344 20.371094 54.441406 22.328125 54.304688 24.703125 Z M 74.0625 35.859375 L 80.226562 35.859375 L 80.121094 36.898438 C 80.050781 37.46875 79.878906 38.910156 79.722656 40.085938 L 79.429688 42.25 L 78.457031 42.597656 C 76.933594 43.167969 75.011719 43.535156 73.402344 43.550781 C 72.121094 43.550781 71.792969 43.5 70.945312 43.082031 C 69.316406 42.269531 68.242188 40.761719 67.496094 38.164062 C 67.152344 36.984375 67.097656 36.414062 67.097656 33.78125 C 67.097656 31.304688 67.167969 30.507812 67.445312 29.449219 L 67.792969 28.152344 L 67.84375 31.996094 L 67.878906 35.859375 Z M 35.671875 31.789062 L 35.671875 34.472656 L 34.320312 34.472656 L 34.632812 33.121094 C 35.1875 30.644531 35.566406 29.101562 35.617188 29.101562 C 35.652344 29.101562 35.671875 30.316406 35.671875 31.789062 Z M 16.15625 33.15625 C 17.074219 33.816406 17.835938 34.386719 17.835938 34.421875 C 17.835938 34.4375 16.589844 34.472656 15.066406 34.472656 L 12.292969 34.472656 L 12.292969 29.933594 L 13.386719 30.957031 C 13.992188 31.511719 15.238281 32.515625 16.15625 33.15625 Z M 43.914062 37.972656 L 43.222656 40.105469 L 42.996094 38.285156 C 42.703125 35.632812 42.632812 35.859375 43.6875 35.859375 L 44.589844 35.859375 Z M 43.914062 37.972656 "/>
</g>
</svg>
