<?xml version="1.0" encoding="UTF-8"?>
<svg xmlns="http://www.w3.org/2000/svg" xmlns:xlink="http://www.w3.org/1999/xlink" width="47px" height="25px" viewBox="0 0 47 25" version="1.1">
<g id="surface1">
<path style=" stroke:none;fill-rule:nonzero;fill:rgb(0%,0%,0%);fill-opacity:1;" d="M 10.980469 1.945312 C 8.367188 2.265625 6.246094 4.1875 5.5625 6.84375 C 5.46875 7.21875 5.425781 7.769531 5.425781 8.753906 C 5.425781 9.925781 5.390625 10.234375 5.246094 10.699219 C 5.011719 11.4375 5.011719 12.484375 5.246094 13.289062 C 5.398438 13.808594 5.425781 14.113281 5.425781 15.726562 L 5.425781 17.578125 L 9.488281 17.578125 L 9.722656 18.0625 C 10.027344 18.699219 10.0625 19.632812 9.78125 20.167969 C 9.570312 20.585938 8.96875 21.007812 8.316406 21.203125 C 7.300781 21.519531 5.578125 21.304688 4.585938 20.753906 C 4.382812 20.644531 4.1875 20.550781 4.152344 20.550781 C 4.09375 20.550781 3.644531 21.789062 3.644531 21.96875 C 3.644531 22.105469 4.136719 22.351562 4.875 22.589844 C 5.695312 22.851562 7.816406 22.929688 8.691406 22.722656 C 9.9375 22.425781 11.105469 21.636719 11.53125 20.804688 C 11.929688 20.023438 12.089844 18.65625 11.867188 17.917969 C 11.828125 17.757812 11.785156 17.613281 11.785156 17.605469 C 11.785156 17.585938 12.453125 17.578125 13.265625 17.578125 C 14.472656 17.578125 14.75 17.605469 14.75 17.695312 C 14.75 17.757812 14.488281 18.886719 14.15625 20.203125 C 13.835938 21.511719 13.5625 22.621094 13.5625 22.671875 C 13.5625 22.734375 13.886719 22.757812 14.515625 22.742188 L 15.464844 22.714844 L 15.574219 22.25 C 15.632812 21.992188 15.828125 21.128906 16.015625 20.339844 C 16.199219 19.539062 16.414062 18.597656 16.488281 18.230469 L 16.632812 17.578125 L 18.050781 17.578125 L 18.074219 13.945312 C 18.089844 11.539062 18.132812 10.265625 18.191406 10.164062 C 18.261719 10.046875 18.304688 10.292969 18.386719 11.269531 C 18.449219 11.957031 18.625 13.398438 18.785156 14.480469 C 18.949219 15.546875 19.21875 17.304688 19.378906 18.386719 C 19.539062 19.453125 19.753906 20.855469 19.847656 21.484375 C 19.9375 22.113281 20.03125 22.691406 20.058594 22.765625 C 20.082031 22.878906 20.183594 22.886719 20.746094 22.824219 C 21.101562 22.785156 21.40625 22.742188 21.421875 22.722656 C 21.457031 22.699219 22.882812 19.207031 23.296875 18.148438 L 23.527344 17.578125 L 24.898438 17.578125 C 25.949219 17.578125 26.28125 17.605469 26.28125 17.679688 C 26.28125 17.738281 26.222656 18.878906 26.152344 20.203125 C 26.085938 21.527344 26.050781 22.648438 26.078125 22.683594 C 26.101562 22.722656 26.535156 22.757812 27.035156 22.757812 L 27.949219 22.757812 L 28 21.085938 C 28.035156 20.167969 28.0625 19.003906 28.0625 18.496094 L 28.0625 17.578125 L 30.910156 17.578125 L 31.011719 18.292969 C 31.34375 20.550781 32.597656 22.257812 34.285156 22.714844 C 34.734375 22.835938 35.046875 22.859375 36.003906 22.816406 C 37.074219 22.773438 37.300781 22.742188 38.742188 22.34375 C 39.597656 22.105469 40.355469 21.910156 40.414062 21.910156 C 40.464844 21.910156 40.53125 21.875 40.558594 21.832031 C 40.617188 21.738281 40.90625 19.769531 41.03125 18.539062 L 41.140625 17.578125 L 43.523438 17.5625 L 45.90625 17.535156 L 45.90625 12.484375 C 45.90625 8.5 45.882812 7.328125 45.789062 6.964844 C 45.1875 4.535156 43.398438 2.691406 41.03125 2.070312 C 40.300781 1.875 38.820312 1.875 38.066406 2.070312 C 37.320312 2.265625 36.257812 2.792969 35.675781 3.261719 C 34.996094 3.804688 34.308594 4.660156 33.917969 5.46875 C 33.402344 6.539062 33.308594 6.988281 33.257812 8.660156 C 33.214844 10.148438 33.214844 10.148438 32.976562 10.402344 C 32.851562 10.539062 32.589844 10.886719 32.394531 11.160156 L 32.046875 11.660156 L 32.046875 9.648438 C 32.046875 7.261719 31.960938 6.691406 31.410156 5.5625 C 30.757812 4.210938 29.695312 3.160156 28.324219 2.496094 C 27.46875 2.089844 26.746094 1.9375 25.6875 1.925781 C 23.976562 1.925781 22.523438 2.523438 21.296875 3.726562 C 20.203125 4.816406 19.421875 6.523438 19.414062 7.828125 L 19.414062 8.320312 L 18.058594 8.320312 L 18.058594 7.871094 C 18.058594 7.320312 17.871094 6.523438 17.589844 5.859375 C 16.496094 3.253906 13.726562 1.605469 10.980469 1.945312 Z M 12.988281 2.683594 C 15.285156 3.210938 16.980469 5.0625 17.371094 7.480469 C 17.496094 8.246094 17.488281 8.304688 17.277344 8.339844 C 17.097656 8.363281 17.015625 8.671875 16.03125 12.628906 L 14.980469 16.898438 L 11.394531 16.898438 L 11.25 16.652344 C 11.03125 16.277344 10.191406 15.539062 9.105469 14.757812 C 7.453125 13.578125 7.070312 13.09375 6.976562 12.058594 C 6.839844 10.597656 7.605469 9.816406 9.28125 9.707031 C 10.097656 9.648438 11.199219 9.894531 11.722656 10.242188 C 11.902344 10.359375 12.0625 10.445312 12.070312 10.429688 C 12.082031 10.410156 12.214844 10.105469 12.367188 9.738281 C 12.574219 9.238281 12.613281 9.042969 12.546875 8.957031 C 12.402344 8.78125 11.429688 8.425781 10.835938 8.320312 C 9.089844 8.042969 7.214844 8.390625 6.332031 9.171875 L 6.019531 9.441406 L 6.019531 8.636719 C 6.019531 7.269531 6.308594 6.15625 6.902344 5.238281 C 8.214844 3.191406 10.671875 2.15625 12.988281 2.683594 Z M 26.957031 2.675781 C 28.714844 3.082031 30.078125 4.210938 30.867188 5.902344 C 31.367188 6.964844 31.382812 7.117188 31.425781 10.113281 C 31.46875 12.78125 31.460938 12.898438 31.28125 13.511719 C 31.0625 14.230469 30.867188 15.589844 30.859375 16.363281 L 30.859375 16.898438 L 28.128906 16.898438 L 28.195312 13.5625 C 28.238281 11.734375 28.273438 9.808594 28.273438 9.296875 L 28.273438 8.363281 L 25.570312 8.363281 L 23.984375 12.3125 C 23.101562 14.488281 22.332031 16.40625 22.253906 16.574219 L 22.125 16.898438 L 20.8125 16.898438 L 20.566406 15.300781 C 20.007812 11.601562 20.007812 11.675781 20.007812 9.613281 C 20.007812 7.480469 20.09375 6.851562 20.480469 5.96875 C 21.023438 4.730469 22.136719 3.601562 23.355469 3.066406 C 24.441406 2.582031 25.882812 2.429688 26.957031 2.675781 Z M 41.261719 2.792969 C 42.796875 3.269531 44.175781 4.542969 44.828125 6.089844 C 45.253906 7.089844 45.269531 7.277344 45.269531 12.246094 L 45.269531 16.898438 L 41.261719 16.898438 L 41.320312 16.390625 L 41.378906 15.878906 L 37.300781 15.878906 L 37.300781 16.125 C 37.300781 16.261719 37.277344 16.492188 37.25 16.636719 L 37.199219 16.898438 L 33.824219 16.898438 L 33.824219 14.597656 C 33.824219 11.929688 33.800781 12.042969 34.648438 11.125 C 35.589844 10.105469 36.683594 9.699219 38.234375 9.800781 C 39.148438 9.859375 39.863281 10.027344 40.464844 10.335938 C 40.691406 10.445312 40.914062 10.511719 40.945312 10.46875 C 40.980469 10.4375 41.125 10.054688 41.269531 9.621094 L 41.523438 8.839844 L 40.964844 8.671875 C 39.9375 8.363281 39.648438 8.3125 38.402344 8.261719 C 37.460938 8.230469 37.003906 8.246094 36.460938 8.355469 C 35.726562 8.492188 34.683594 8.933594 34.191406 9.308594 C 34.046875 9.417969 33.894531 9.511719 33.859375 9.511719 C 33.757812 9.511719 33.894531 7.4375 34.039062 6.871094 C 34.5625 4.804688 36.285156 3.140625 38.359375 2.683594 C 39.132812 2.511719 40.53125 2.566406 41.261719 2.792969 Z M 26.585938 12.109375 C 26.507812 13.273438 26.425781 14.808594 26.398438 15.523438 C 26.355469 16.371094 26.304688 16.839844 26.238281 16.863281 C 26.1875 16.890625 25.628906 16.890625 24.992188 16.882812 L 23.832031 16.855469 L 24.679688 14.777344 C 25.144531 13.628906 25.78125 12.074219 26.085938 11.3125 C 26.390625 10.546875 26.652344 9.945312 26.679688 9.960938 C 26.695312 9.988281 26.652344 10.945312 26.585938 12.109375 Z M 36.257812 17.578125 L 39.277344 17.578125 L 39.226562 18.085938 C 39.191406 18.367188 39.105469 19.074219 39.03125 19.648438 L 38.886719 20.710938 L 38.414062 20.882812 C 37.667969 21.160156 36.726562 21.339844 35.9375 21.347656 C 35.308594 21.347656 35.148438 21.324219 34.734375 21.121094 C 33.9375 20.71875 33.410156 19.980469 33.046875 18.707031 C 32.875 18.128906 32.851562 17.851562 32.851562 16.558594 C 32.851562 15.34375 32.882812 14.953125 33.019531 14.4375 L 33.191406 13.800781 L 33.214844 15.683594 L 33.230469 17.578125 Z M 17.464844 15.582031 L 17.464844 16.898438 L 16.800781 16.898438 L 16.957031 16.238281 C 17.226562 15.023438 17.414062 14.265625 17.4375 14.265625 C 17.457031 14.265625 17.464844 14.859375 17.464844 15.582031 Z M 7.910156 16.253906 C 8.359375 16.574219 8.730469 16.855469 8.730469 16.875 C 8.730469 16.882812 8.121094 16.898438 7.375 16.898438 L 6.019531 16.898438 L 6.019531 14.675781 L 6.554688 15.175781 C 6.851562 15.445312 7.460938 15.9375 7.910156 16.253906 Z M 21.5 18.613281 L 21.160156 19.660156 L 21.050781 18.765625 C 20.90625 17.46875 20.871094 17.578125 21.390625 17.578125 L 21.828125 17.578125 Z M 21.5 18.613281 "/>
</g>
</svg>
