<?xml version="1.0" standalone="no"?>
<!DOCTYPE svg PUBLIC "-//W3C//DTD SVG 20010904//EN"
 "http://www.w3.org/TR/2001/REC-SVG-20010904/DTD/svg10.dtd">
<svg version="1.0" xmlns="http://www.w3.org/2000/svg"
 width="554.000000pt" height="294.000000pt" viewBox="0 0 554.000000 294.000000"
 preserveAspectRatio="xMidYMid meet">

<g transform="translate(0.000000,294.000000) scale(0.100000,-0.100000)"
fill="#000000" stroke="none">
<path d="M1295 2711 c-308 -38 -558 -264 -639 -577 -11 -44 -16 -109 -16 -225
0 -138 -4 -174 -21 -229 -28 -87 -28 -210 0 -305 18 -61 21 -97 21 -287 l0
-218 239 0 240 0 28 -57 c36 -75 40 -185 7 -248 -25 -49 -96 -99 -173 -122
-120 -37 -323 -12 -440 53 -24 13 -47 24 -51 24 -7 0 -60 -146 -60 -167 0 -16
58 -45 145 -73 97 -31 347 -40 450 -16 147 35 285 128 335 226 47 92 66 253
40 340 -5 19 -10 36 -10 37 0 2 79 3 175 3 142 0 175 -3 175 -14 0 -7 -31
-140 -70 -295 -38 -154 -70 -285 -70 -291 0 -7 38 -10 112 -8 l112 3 13 55 c7
30 30 132 52 225 22 94 47 205 56 248 l17 77 83 0 84 0 3 428 c2 283 7 433 14
445 8 14 13 -15 23 -130 7 -81 28 -251 47 -378 19 -126 51 -333 70 -460 19
-126 44 -291 55 -365 11 -74 22 -142 25 -151 3 -13 15 -14 81 -7 42 5 78 10
80 12 4 3 172 414 221 539 l27 67 162 0 c124 0 163 -3 163 -12 0 -7 -7 -141
-15 -297 -8 -156 -12 -288 -9 -292 3 -5 54 -9 113 -9 l108 0 6 197 c4 108 7
245 7 305 l0 108 168 0 168 0 12 -84 c39 -266 187 -467 386 -521 53 -14 90
-17 203 -12 126 5 153 9 323 56 101 28 190 51 197 51 6 0 14 4 17 9 7 11 41
243 56 388 l13 113 281 2 281 3 0 595 c0 469 -3 607 -14 650 -71 286 -282 503
-561 576 -86 23 -261 23 -350 0 -88 -23 -213 -85 -282 -140 -80 -64 -161 -165
-207 -260 -61 -126 -72 -179 -78 -376 -5 -175 -5 -175 -33 -205 -15 -16 -46
-57 -69 -89 l-41 -59 0 237 c0 281 -10 348 -75 481 -77 159 -202 283 -364 361
-101 48 -186 66 -311 67 -202 0 -373 -70 -518 -212 -129 -128 -221 -329 -222
-483 l0 -58 -80 0 -80 0 0 53 c0 65 -22 159 -55 237 -129 307 -456 501 -780
461z m237 -87 c271 -62 471 -280 517 -565 15 -90 14 -97 -11 -101 -21 -3 -31
-39 -147 -505 l-124 -503 -212 0 -211 0 -17 29 c-26 44 -125 131 -253 223
-195 139 -240 196 -251 318 -16 172 74 264 272 277 96 7 226 -22 288 -63 21
-14 40 -24 41 -22 1 2 17 38 35 81 24 59 29 82 21 92 -17 21 -132 63 -202 75
-206 33 -427 -8 -531 -100 l-37 -32 0 95 c0 161 34 292 104 400 155 241 445
363 718 301z m1648 1 c207 -48 368 -181 461 -380 59 -125 61 -143 66 -496 5
-314 4 -328 -17 -400 -26 -85 -49 -245 -50 -336 l0 -63 -161 0 -161 0 8 393
c5 215 9 442 9 502 l0 110 -159 0 -160 0 -187 -465 c-104 -256 -195 -482 -204
-502 l-15 -38 -78 0 -77 0 -29 188 c-66 436 -66 427 -66 670 0 251 10 325 56
429 64 146 195 279 339 342 128 57 298 75 425 46z m1687 -14 c181 -56 344
-206 421 -388 50 -118 52 -140 52 -725 l0 -548 -236 0 -237 0 7 60 7 60 -241
0 -240 0 0 -29 c0 -16 -3 -43 -6 -60 l-6 -31 -199 0 -199 0 0 271 c0 314 -3
301 97 409 111 120 240 168 423 156 108 -7 192 -27 263 -63 27 -13 53 -21 57
-16 4 4 21 49 38 100 l30 92 -66 20 c-121 36 -155 42 -302 48 -111 4 -165 2
-229 -11 -87 -16 -210 -68 -268 -112 -17 -13 -35 -24 -39 -24 -12 0 4 244 21
311 62 243 265 439 510 493 91 20 256 14 342 -13z m-1731 -1097 c-9 -137 -19
-318 -22 -402 -5 -100 -11 -155 -19 -158 -6 -3 -72 -3 -147 -2 l-137 3 100
245 c55 135 130 318 166 408 36 90 67 161 70 159 2 -3 -3 -116 -11 -253z
m1141 -644 l356 0 -6 -60 c-4 -33 -14 -116 -23 -184 l-17 -125 -56 -20 c-88
-33 -199 -54 -292 -55 -74 0 -93 3 -142 27 -94 47 -156 134 -199 284 -20 68
-23 101 -23 253 0 143 4 189 20 250 l20 75 3 -222 2 -223 357 0z m-2217 235
l0 -155 -39 0 -39 0 18 78 c32 143 54 232 57 232 2 0 3 -70 3 -155z m-1127
-79 c53 -38 97 -71 97 -73 0 -1 -72 -3 -160 -3 l-160 0 0 131 0 131 63 -59
c35 -32 107 -90 160 -127z m1603 -278 l-40 -123 -13 105 c-17 153 -21 140 40
140 l52 0 -39 -122z"/>
</g>
</svg>
